<svg id="Solid" height="512" viewBox="0 0 512 512" width="512" xmlns="http://www.w3.org/2000/svg"><g><path d="m315.773 353.915 9.69-33.915h-48.449l18.563 16.243h.423v.37z"/><path d="m196.227 353.915 19.773-17.302v-.37h.423l18.563-16.243h-48.449z"/><path d="m403.9941 361.0654a8 8 0 0 1 -3.9941-6.9248v-11.8974a22.0248 22.0248 0 0 0 -22-22l-35.8958-.2432-14.4118 50.1982a8 8 0 0 1 -12.9605 3.8223l-18.7319-16.3905v66.37a8 8 0 0 1 -8 8h-64a8 8 0 0 1 -8-8v-66.37l-18.7319 16.39a8.0006 8.0006 0 0 1 -12.96-3.8223l-14.4123-50.1977-35.8958.2432a22.0248 22.0248 0 0 0 -22 22v11.8974a8 8 0 0 1 -3.9941 6.9248 8.0052 8.0052 0 0 0 0 13.8692 7.9986 7.9986 0 0 1 1.4414 1.0654h34.12l-7.1568-21.47 15.1788-5.0606 8 24a8.0085 8.0085 0 0 1 .4107 2.5306v104h192v-104a8.0085 8.0085 0 0 1 .4106-2.53l8-24 15.1788 5.0606-7.1568 21.4694h34.12a7.9986 7.9986 0 0 1 1.4414-1.0654 8.0052 8.0052 0 0 0 0-13.8692z"/><path d="m48 206v20a22.0248 22.0248 0 0 0 22 22h10v-64h-10a22.0248 22.0248 0 0 0 -22 22z"/><path d="m112 432a32.0364 32.0364 0 0 0 32 32v-72h-32z"/><path d="m368 464a32.0364 32.0364 0 0 0 32-32v-40h-32z"/><path d="m232 343.63v72.37h48v-72.37l-24-21zm32 56.37h-16v-16h16zm0-32h-16v-16h16z"/><path d="m389.6851 158.1143a7.9967 7.9967 0 0 1 -5.6851 2.372h-.0078l-40-.039a8.0009 8.0009 0 0 1 -6.686-3.6192l-9.3106-14.2256-9.3042 14.1975a8.0012 8.0012 0 0 1 -6.6914 3.615h-.0078l-112-.1113a8.0018 8.0018 0 0 1 -6.6743-3.6006l-9.3208-14.1592-9.3171 14.1387a7.9991 7.9991 0 0 1 -6.68 3.5986h-.0078l-40-.038a7.9966 7.9966 0 0 1 -5.6773-2.3721l-14.8574-15.0078-11.4575 34.1982v74.6953a52.0589 52.0589 0 0 0 52 52h216a52.0589 52.0589 0 0 0 52-52v-74.6894l-11.4414-33.9766zm-205.6851 33.8857a24.0272 24.0272 0 0 0 -24 24h-16a40 40 0 0 1 80 0h-16a24.0272 24.0272 0 0 0 -24-24zm72 88a32.0364 32.0364 0 0 1 -32-32h16a16 16 0 0 0 32 0h16a32.0364 32.0364 0 0 1 -32 32zm96-64a24 24 0 0 0 -48 0h-16a40 40 0 0 1 80 0z"/><path d="m440 134a102.1153 102.1153 0 0 0 -102-102h-118a51.6122 51.6122 0 0 0 -41.606 20.8027 8 8 0 0 1 -12.0532.8526c-6.292-6.292-13.1357-10.43-20.4389-12.3711 1.09 5.9824 2.437 13.7568 3.5922 21.542a8 8 0 0 1 -7.9135 9.1738h-35.5806a42.0475 42.0475 0 0 0 -42 42v54.4739a38.1328 38.1328 0 0 1 6-.4739h12.162l14.2526-42.541a7.9992 7.9992 0 0 1 13.2705-3.0869l21.6552 21.874 32.3531.0312 13.6266-20.6787a7.9987 7.9987 0 0 1 6.68-3.5986h.0015a8.0015 8.0015 0 0 1 6.6806 3.6006l13.6319 20.707 103.3667.1035 13.6279-20.7959a8.0008 8.0008 0 0 1 6.6914-3.6152h.0024a8 8 0 0 1 6.6914 3.6191l13.6343 20.8321 32.3379.0322 21.6489-21.8682a8 8 0 0 1 13.2666 3.0752l14.2476 42.3096h10.1709z"/><path d="m442 184h-10v64h10a22.0248 22.0248 0 0 0 22-22v-20a22.0248 22.0248 0 0 0 -22-22z"/></g></svg>